<?xml version="1.0" standalone="no"?>
<svg version="1.0" xmlns="http://www.w3.org/2000/svg"
 width="736.000000pt" height="736.000000pt" viewBox="0 0 736.000000 736.000000"
 preserveAspectRatio="xMidYMid meet">
<metadata>
Created by potrace 1.11, written by Peter Selinger 2001-2013
</metadata>
<g transform="translate(0.000000,736.000000) scale(0.100000,-0.100000)"
fill="#000000" stroke="none">
<path d="M1992 6692 c-1631 -316 -1633 -316 -1627 -339 4 -18 1 -23 -15 -23
-15 0 -20 -7 -20 -27 0 -29 366 -3928 376 -4006 3 -29 11 -47 19 -47 7 0 12
-7 11 -16 -1 -12 445 -302 1459 -949 1283 -819 1462 -930 1472 -916 12 15 14
15 25 0 11 -14 192 98 1473 916 1069 682 1459 937 1457 949 -2 9 4 16 12 16 9
0 16 15 20 48 10 78 376 3977 376 4005 0 20 -5 27 -20 27 -16 0 -19 5 -15 23
6 23 5 23 -1642 340 -906 175 -1666 317 -1688 316 -22 0 -775 -143 -1673 -317z
m3305 -28 c871 -170 1583 -311 1583 -314 0 -3 -720 -223 -1600 -489 l-1600
-483 -1600 483 c-880 266 -1600 486 -1600 489 0 9 3183 629 3210 626 14 -2
737 -143 1607 -312z m-3377 -855 c817 -253 1536 -476 1598 -495 l112 -35 0
-2421 c0 -1932 -3 -2419 -12 -2415 -20 7 -2841 1797 -2855 1811 -9 8 -72 656
-198 2005 -102 1096 -185 2000 -185 2008 0 12 7 13 28 8 15 -3 695 -213 1512
-466z m5060 457 c0 -7 -83 -910 -185 -2007 -125 -1347 -189 -1998 -198 -2005
-14 -14 -2835 -1804 -2854 -1811 -10 -4 -13 483 -13 2416 l0 2420 68 21 c37
11 762 236 1612 500 850 263 1551 479 1558 479 6 1 12 -5 12 -13z"/>
</g>
</svg>
